<svg width="256" height="256" viewBox="0 0 256 256" fill="none" xmlns="http://www.w3.org/2000/svg" role="img" aria-labelledby="title desc">
  <title id="title">OpsMind AI icon</title>
  <desc id="desc">A gear and circuit brain symbol in blue and purple.</desc>
  <defs>
    <linearGradient id="g1" x1="28" y1="20" x2="220" y2="228" gradientUnits="userSpaceOnUse">
      <stop stop-color="#2DD4BF"/>
      <stop offset="0.48" stop-color="#1982E0"/>
      <stop offset="1" stop-color="#1E1B8F"/>
    </linearGradient>
    <linearGradient id="g2" x1="128" y1="32" x2="228" y2="208" gradientUnits="userSpaceOnUse">
      <stop stop-color="#7C3AED"/>
      <stop offset="0.52" stop-color="#8B5CF6"/>
      <stop offset="1" stop-color="#2563EB"/>
    </linearGradient>
  </defs>
  <circle cx="96" cy="128" r="44" stroke="url(#g1)" stroke-width="16"/>
  <path d="M96 38C69.5 38 48 59.5 48 86c0 9.8 3 18.8 8.3 26.2L44 122l13.6 23.6 15.9-9.2c6.8 4.9 14.7 8.4 23.3 10.2V168h30v-21.4c8.6-1.8 16.5-5.3 23.3-10.2l15.9 9.2L180 122l-14.3-14.3c5.3-7.4 8.3-16.4 8.3-26.2 0-26.5-21.5-48-48-48H96z" stroke="url(#g1)" stroke-width="14" stroke-linecap="round" stroke-linejoin="round"/>
  <path d="M132 88h56" stroke="url(#g2)" stroke-width="8" stroke-linecap="round"/>
  <path d="M132 112h44" stroke="url(#g2)" stroke-width="8" stroke-linecap="round"/>
  <path d="M132 136h58" stroke="url(#g2)" stroke-width="8" stroke-linecap="round"/>
  <path d="M132 160h36" stroke="url(#g2)" stroke-width="8" stroke-linecap="round"/>
  <circle cx="188" cy="88" r="10" fill="#2DD4BF" stroke="white" stroke-width="6"/>
  <circle cx="176" cy="160" r="10" fill="#8B5CF6" stroke="white" stroke-width="6"/>
  <circle cx="196" cy="112" r="10" fill="#2563EB" stroke="white" stroke-width="6"/>
</svg>
